# xmcd
# Copyright (C) 1995-1998 Ti Kan
#
# Track frame offsets:
#       150
#       11539
#       31369
#       48342
#       67711
#       81786
#       99912
#       116822
#       134292
#       151458
#       166980
#       180970
#
# Disc length: 2720 seconds
#
# Revision: 0
# Processed by: cddbd v1.5.2PL0 Copyright (c) Steve Scherf et al.
# Submitted via: CD-Import v1.0
#
DISCID=880a9e0c
DTITLE=We Have Band - We Have Band
DYEAR=2010
DGENRE=
TTITLE0=Piano
TTITLE1=Buffet
TTITLE2=Divisive
TTITLE3=Love, What You Doing?
TTITLE4=Oh!
TTITLE5=How To Make Friends
TTITLE6=Honey Trap
TTITLE7=Hear It In The Cans
TTITLE8=Centerfold and Empty Screens
TTITLE9=You Came Out
TTITLE10=Whb
TTITLE11=Hero Knows
EXTD=
EXTT0=
EXTT1=
EXTT2=
EXTT3=
EXTT4=
EXTT5=
EXTT6=
EXTT7=
EXTT8=
EXTT9=
EXTT10=
EXTT11=
PLAYORDER=
